HIERARCHY
ROOT Hips
{
	OFFSET 0.00000 0.00000 0.00000
	CHANNELS 6 Xposition Yposition Zposition Zrotation Yrotation Xrotation 
	JOINT LHipJoint
	{
		OFFSET 0 0 0
		CHANNELS 3 Zrotation Yrotation Xrotation
		JOINT LeftUpLeg
		{
			OFFSET 1.23340 -1.80723 0.69510
			CHANNELS 3 Zrotation Yrotation Xrotation
			JOINT LeftLeg
			{
				OFFSET 2.50056 -6.87023 0.00000
				CHANNELS 3 Zrotation Yrotation Xrotation
				JOINT LeftFoot
				{
					OFFSET 2.85931 -7.85591 0.00000
					CHANNELS 3 Zrotation Yrotation Xrotation
					JOINT LeftToeBase
					{
						OFFSET 0.21001 -0.57700 2.07823
						CHANNELS 3 Zrotation Yrotation Xrotation
						End Site
						{
							OFFSET 0.00000 -0.00000 1.08338
						}
					}
				}
			}
		}
	}
	JOINT RHipJoint
	{
		OFFSET 0 0 0
		CHANNELS 3 Zrotation Yrotation Xrotation
		JOINT RightUpLeg
		{
			OFFSET -1.40842 -1.80723 0.69510
			CHANNELS 3 Zrotation Yrotation Xrotation
			JOINT RightLeg
			{
				OFFSET -2.54876 -7.00266 0.00000
				CHANNELS 3 Zrotation Yrotation Xrotation
				JOINT RightFoot
				{
					OFFSET -2.74835 -7.55104 0.00000
					CHANNELS 3 Zrotation Yrotation Xrotation
					JOINT RightToeBase
					{
						OFFSET -0.22633 -0.62184 2.00890
						CHANNELS 3 Zrotation Yrotation Xrotation
						End Site
						{
							OFFSET -0.00000 -0.00000 1.05493
						}
					}
				}
			}
		}
	}
	JOINT LowerBack
	{
		OFFSET 0 0 0
		CHANNELS 3 Zrotation Yrotation Xrotation
		JOINT Spine
		{
			OFFSET -0.02340 2.02740 -0.12728
			CHANNELS 3 Zrotation Yrotation Xrotation
			JOINT Spine1
			{
				OFFSET -0.00862 2.03614 -0.01188
				CHANNELS 3 Zrotation Yrotation Xrotation
				JOINT Neck
				{
					OFFSET 0 0 0
					CHANNELS 3 Zrotation Yrotation Xrotation
					JOINT Neck1
					{
						OFFSET 0.03380 1.76650 0.27670
						CHANNELS 3 Zrotation Yrotation Xrotation
						JOINT Head
						{
							OFFSET -0.01114 1.80516 -0.21451
							CHANNELS 3 Zrotation Yrotation Xrotation
							End Site
							{
								OFFSET -0.00766 1.81942 -0.10287
							}
						}
					}
				}
				JOINT LeftShoulder
				{
					OFFSET 0 0 0
					CHANNELS 3 Zrotation Yrotation Xrotation
					JOINT LeftArm
					{
						OFFSET 3.22358 1.39475 0.18630
						CHANNELS 3 Zrotation Yrotation Xrotation
						JOINT LeftForeArm
						{
							OFFSET 5.45077 -0.00000 0.00000
							CHANNELS 3 Zrotation Yrotation Xrotation
							JOINT LeftHand
							{
								OFFSET 3.05488 -0.00000 0.00000
								CHANNELS 3 Zrotation Yrotation Xrotation
								JOINT LeftFingerBase
								{
									OFFSET 0 0 0
									CHANNELS 3 Zrotation Yrotation Xrotation
									JOINT LeftHandIndex1
									{
										OFFSET 0.63882 -0.00000 0.00000
										CHANNELS 3 Zrotation Yrotation Xrotation
										End Site
										{
											OFFSET 0.51503 -0.00000 0.00000
										}
									}
								}
								JOINT LThumb
								{
									OFFSET 0 0 0
									CHANNELS 3 Zrotation Yrotation Xrotation
									End Site
									{
										OFFSET 0.52290 -0.00000 0.52290
									}
								}
							}
						}
					}
				}
				JOINT RightShoulder
				{
					OFFSET 0 0 0
					CHANNELS 3 Zrotation Yrotation Xrotation
					JOINT RightArm
					{
						OFFSET -3.57143 1.14055 0.30691
						CHANNELS 3 Zrotation Yrotation Xrotation
						JOINT RightForeArm
						{
							OFFSET -4.88702 -0.00000 -0.00000
							CHANNELS 3 Zrotation Yrotation Xrotation
							JOINT RightHand
							{
								OFFSET -3.22603 -0.00000 0.00000
								CHANNELS 3 Zrotation Yrotation Xrotation
								JOINT RightFingerBase
								{
									OFFSET 0 0 0
									CHANNELS 3 Zrotation Yrotation Xrotation
									JOINT RightHandIndex1
									{
										OFFSET -0.71629 -0.00000 0.00000
										CHANNELS 3 Zrotation Yrotation Xrotation
										End Site
										{
											OFFSET -0.57749 -0.00000 0.00000
										}
									}
								}
								JOINT RThumb
								{
									OFFSET 0 0 0
									CHANNELS 3 Zrotation Yrotation Xrotation
									End Site
									{
										OFFSET -0.58631 -0.00000 0.58631
									}
								}
							}
						}
					}
				}
			}
		}
	}
}
MOTION
Frames: 12
Frame Time: .0083333
1.2909 18.5494 -0.4319 0 0 0 0 0 0 -21 0 0 0 0 0 0 0 0 0 0 0 0 0 0 21 0 0 0 0 0 0 0 0 0 0 0 0 0 0 0 0 0 0 0 0 0 0 -16 0 0 21 0 0 11 0 0 0 -8 0 0 0 0 0 0 0 0 0 0 0 0 0 0 0 0 0 0 0 0 8 0 0 0 0 0 0 0 0 0 0 0 0 0 0 0 0 0
1.2909 18.5494 -0.4319 16.6752 80.8001 28.3118 0.0000 0.0000 0.0000 -24.3061 7.4848 -18.2875 0.7575 5.5587 15.5091 0.5367 -3.3102 -13.1042 1.9542 -8.7700 -25.0786 0.0000 0.0000 0.0000 12.6542 -8.8608 -12.3156 0.0000 -0.0000 0.0000 0.7692 15.3119 6.0042 -0.6693 5.2316 -14.5702 -3.7524 -2.7092 -10.4563 -0.3464 -3.0981 -3.2041 1.3562 -1.5034 2.6953 -1.6767 -4.5245 -17.9265 3.1860 -6.5898 25.4026 0.4775 -2.6348 11.4039 -0.0000 0.0000 0.0000 -77.0026 -29.6861 72.5334 81.6964 -59.7379 -52.8152 -0.0000 0.0000 -7.6128 17.8416 27.0858 8.3376 -7.1250 0.0000 -0.0000 -13.7697 57.6929 -4.3333 -0.0000 0.0000 0.0000 54.2479 32.7657 30.1343 -37.5921 46.5768 -16.6687 0.0000 0.0000 4.0361 -14.9378 1.6951 -0.4522 7.1250 -0.0000 -0.0000 8.9891 -28.1831 3.7200
1.3006 18.5533 -0.4090 17.5414 81.0368 29.2877 0.0000 0.0000 0.0000 -24.2669 7.4029 -18.3223 0.7501 5.5320 15.4324 0.5249 -3.4744 -12.9404 1.9798 -8.8238 -25.2456 0.0000 0.0000 0.0000 12.7344 -9.1167 -12.4156 0.0000 -0.0000 0.0000 0.7771 15.3862 5.9153 -0.6866 5.2975 -14.7591 -3.8206 -2.7483 -10.4537 -0.3655 -3.1416 -3.2273 1.3696 -1.5239 2.6745 -1.6646 -4.4351 -18.2022 3.1601 -6.4623 25.4580 0.4793 -2.5751 11.4742 -0.0000 -0.0000 0.0000 -76.5193 -28.2642 72.0544 82.5856 -59.7913 -53.5834 -0.0000 0.0000 -7.4179 17.4136 26.4703 7.9584 -7.1250 0.0000 -0.0000 -13.8743 56.9953 -4.1323 -0.0000 -0.0000 0.0000 54.5201 31.3125 31.1053 -38.9471 47.4336 -17.6598 0.0000 0.0000 3.1988 -15.1319 1.6474 -0.4454 7.1250 -0.0000 -0.0000 8.8438 -28.2318 3.6482
1.3120 18.5534 -0.3882 17.3943 80.9533 29.1597 0.0000 0.0000 0.0000 -24.2227 7.4801 -18.3490 0.7557 5.5519 15.4897 0.5277 -3.4627 -12.9771 2.0085 -8.8837 -25.4323 0.0000 0.0000 0.0000 12.7695 -9.0269 -12.3909 0.0000 -0.0000 0.0000 0.7812 15.4254 5.8913 -0.6850 5.2914 -14.7414 -3.7920 -2.6529 -10.3934 -0.3989 -3.0194 -3.2923 1.3396 -1.4601 2.5641 -1.6087 -4.3375 -18.2677 2.9973 -6.2953 25.5293 0.4347 -2.5129 11.5009 0.0000 0.0000 0.0000 -76.1207 -26.6225 71.6101 83.5713 -59.8433 -54.4355 -0.0000 0.0000 -7.4829 17.2867 26.6410 7.9441 -7.1250 0.0000 -0.0000 -14.1016 57.1363 -4.2501 0.0000 0.0000 0.0000 55.0141 29.5957 31.9641 -40.4494 48.3339 -18.7742 0.0000 0.0000 2.5823 -15.2767 1.6934 -0.4624 7.1250 -0.0000 -0.0000 8.7288 -28.1847 3.6096
1.3228 18.5520 -0.3669 16.5285 80.9975 28.3068 0.0000 0.0000 0.0000 -24.0125 7.4937 -18.3100 0.7568 5.5559 15.5011 0.5298 -3.3407 -13.0148 2.1092 -9.0899 -26.0769 0.0000 0.0000 0.0000 12.9915 -8.9934 -12.3574 0.0000 -0.0000 0.0000 0.7818 15.4313 5.8877 -0.6596 5.1942 -14.4634 -3.6505 -2.5628 -10.4151 -0.3664 -2.9151 -3.2634 1.3061 -1.4095 2.5956 -1.5817 -4.2495 -18.3366 2.8694 -6.1402 25.4476 0.4061 -2.4592 11.4729 0.0000 0.0000 0.0000 -75.7076 -25.0886 71.2105 84.6938 -59.8933 -55.4063 -0.0000 0.0000 -7.8164 17.4969 27.1107 8.1751 -7.1250 0.0000 -0.0000 -14.1469 57.6426 -4.4379 0.0000 0.0000 0.0000 55.6431 27.9634 32.5034 -41.9217 49.1681 -19.8813 0.0000 0.0000 2.1259 -15.2857 1.7473 -0.4774 7.1250 -0.0000 -0.0000 8.7177 -28.1295 3.6165
1.3339 18.5547 -0.3436 15.9525 81.1761 27.8242 0.0000 0.0000 0.0000 -23.7633 7.3781 -18.3292 0.7573 5.5577 15.5062 0.5312 -3.3748 -13.0294 2.1044 -9.0802 -26.0464 0.0000 0.0000 0.0000 13.2627 -9.0832 -12.4228 0.0000 0.0000 -0.0000 0.7815 15.4284 5.8289 -0.6627 5.2063 -14.4979 -3.6052 -2.5450 -10.4932 -0.2715 -2.8957 -3.2738 1.3787 -1.3999 2.6294 -1.4156 -4.1183 -18.3837 2.5166 -5.9031 25.3807 0.2853 -2.3841 11.4312 -0.0000 -0.0000 0.0000 -75.4109 -23.5722 70.7719 85.5511 -59.9251 -56.1481 -0.0000 0.0000 -8.2027 17.2701 27.5126 8.1726 -7.1250 0.0000 -0.0000 -14.6206 57.9871 -4.7127 -0.0000 -0.0000 0.0000 56.1912 26.3150 33.0990 -43.3698 49.9444 -20.9834 0.0000 0.0000 1.8618 -15.0548 1.7879 -0.4808 7.1250 -0.0000 -0.0000 8.8918 -28.0881 3.6991
1.3461 18.5575 -0.3212 15.8083 81.3856 27.7486 0.0000 0.0000 0.0000 -23.5834 7.3330 -18.3667 0.7585 5.5621 15.5190 0.5318 -3.4940 -13.0255 2.1137 -9.0989 -26.1053 0.0000 0.0000 0.0000 13.4707 -9.2441 -12.4681 0.0000 -0.0000 0.0000 0.7855 15.4658 5.7677 -0.6776 5.2633 -14.6612 -3.5191 -2.5322 -10.5292 -0.2536 -2.8864 -3.2703 1.3488 -1.3954 2.6492 -1.1917 -3.9554 -18.5388 2.2715 -5.6718 25.3617 0.1909 -2.2894 11.4328 -0.0000 -0.0000 0.0000 -75.0029 -22.0602 70.3489 86.1330 -59.9434 -56.6517 -0.0000 0.0000 -8.4231 16.9687 27.6863 8.0693 -7.1250 0.0000 -0.0000 -15.0423 58.0905 -4.8903 -0.0000 -0.0000 0.0000 56.8178 24.6964 33.6644 -44.7068 50.6241 -22.0119 0.0000 0.0000 1.8898 -15.0369 1.8171 -0.4880 7.1250 -0.0000 -0.0000 8.9033 -28.0583 3.7103
1.3608 18.5565 -0.2979 16.3800 81.5870 28.3824 0.0000 0.0000 0.0000 -23.5011 7.2320 -18.3456 0.7572 5.5576 15.5061 0.5312 -3.6179 -13.0095 2.1085 -9.0886 -26.0728 0.0000 0.0000 0.0000 13.5588 -9.4593 -12.5024 0.0000 -0.0000 0.0000 0.7898 15.5073 5.7566 -0.6396 5.1167 -14.2417 -3.4586 -2.5230 -10.5765 -0.3371 -2.8740 -3.2941 1.2288 -1.3880 2.6427 -0.9592 -3.7970 -18.5773 2.1070 -5.4710 25.2830 0.1227 -2.1995 11.3933 0.0000 -0.0000 0.0000 -74.5232 -20.5113 70.0174 86.4343 -59.9519 -56.9125 -0.0000 0.0000 -8.6080 16.8270 27.2026 7.8714 -7.1250 0.0000 -0.0000 -14.9035 57.5881 -4.6625 0.0000 -0.0000 0.0000 57.5441 22.9585 34.2646 -45.9947 51.2466 -23.0118 0.0000 0.0000 1.9042 -15.0727 2.0477 -0.5513 7.1250 -0.0000 -0.0000 8.8580 -27.8224 3.7410
1.3771 18.5576 -0.2773 16.7665 81.7582 28.8516 0.0000 0.0000 0.0000 -23.4090 7.0585 -18.2764 0.7531 5.5426 15.4628 0.5348 -3.6148 -13.0539 2.0860 -9.0430 -25.9298 0.0000 0.0000 0.0000 13.6566 -9.6302 -12.5492 0.0000 0.0000 -0.0000 0.8003 15.6073 5.6512 -0.6375 5.1084 -14.2181 -3.3441 -2.4949 -10.6633 -0.4003 -2.8413 -3.3063 1.1006 -1.3712 2.6675 -0.9963 -3.6724 -18.5314 2.1230 -5.2831 25.0582 0.1653 -2.1228 11.2974 0.0000 0.0000 0.0000 -74.0977 -19.0067 69.6922 86.8079 -59.9615 -57.2359 -0.0000 0.0000 -8.8005 16.5475 27.0415 7.6929 -7.1250 0.0000 -0.0000 -15.1015 57.3709 -4.6467 0.0000 0.0000 0.0000 58.2649 21.2774 34.8433 -47.2299 51.8153 -23.9790 0.0000 0.0000 1.8944 -15.1574 2.0695 -0.5605 7.1250 -0.0000 -0.0000 8.7913 -27.7997 3.7170
1.3958 18.5579 -0.2562 15.9332 81.9434 28.0804 0.0000 0.0000 0.0000 -23.1243 6.8657 -18.1806 0.7517 5.5378 15.4491 0.5404 -3.4569 -13.1366 2.0593 -8.9886 -25.7597 0.0000 0.0000 0.0000 13.9333 -9.7326 -12.5516 0.0000 0.0000 -0.0000 0.8089 15.6898 5.5525 -0.6400 5.1181 -14.2457 -3.1028 -2.4287 -10.7731 -0.3742 -2.7755 -3.2660 0.9960 -1.3401 2.7570 -0.9792 -3.5307 -18.6665 2.0061 -5.0544 24.9259 0.1526 -2.0359 11.2653 -0.0000 -0.0000 0.0000 -73.8475 -17.5044 69.2317 86.9777 -59.9655 -57.3829 -0.0000 0.0000 -8.8094 16.1056 26.9353 7.4517 -7.1250 0.0000 -0.0000 -15.4995 57.1738 -4.6989 -0.0000 -0.0000 0.0000 58.8508 19.7095 35.4082 -48.3378 52.3027 -24.8528 0.0000 0.0000 1.7789 -15.3170 2.0713 -0.5672 7.1250 -0.0000 -0.0000 8.6691 -27.7973 3.6647
1.4096 18.5584 -0.2307 15.2844 82.0539 27.4523 0.0000 0.0000 0.0000 -22.8608 6.6537 -18.0565 0.7496 5.5302 15.4271 0.5341 -3.2515 -13.0769 1.9964 -8.8586 -25.3540 0.0000 0.0000 0.0000 14.1553 -9.7838 -12.5258 0.0000 0.0000 -0.0000 0.8101 15.7009 5.5557 -0.6291 5.0754 -14.1237 -3.0139 -2.3448 -10.8114 -0.3386 -2.6742 -3.2287 0.9945 -1.2910 2.8104 -0.9451 -3.3939 -18.7701 1.8494 -4.8265 24.7641 0.1232 -1.9538 11.2147 0.0000 0.0000 0.0000 -73.6664 -15.9712 68.7317 87.2069 -59.9705 -57.5813 -0.0000 0.0000 -8.7900 15.5947 26.8515 7.1852 -7.1250 0.0000 -0.0000 -15.9798 56.9848 -4.7761 0.0000 0.0000 0.0000 59.3323 18.1134 35.9879 -49.2507 52.6888 -25.5770 0.0000 0.0000 1.7234 -15.3346 2.1969 -0.6023 7.1250 -0.0000 -0.0000 8.6462 -27.6684 3.6814
1.4221 18.5573 -0.2061 15.0941 82.2936 27.2853 0.0000 0.0000 0.0000 -22.6154 6.3863 -17.9144 0.7478 5.5236 15.4083 0.5284 -3.1029 -13.0203 1.9830 -8.8306 -25.2668 0.0000 0.0000 0.0000 14.3630 -9.9860 -12.5240 0.0000 0.0000 -0.0000 0.8087 15.6862 5.6544 -0.5683 4.8282 -13.4192 -2.9313 -2.3203 -10.8245 -0.3160 -2.6507 -3.2250 0.9743 -1.2793 2.8179 -0.8534 -3.2362 -18.7121 1.6758 -4.5804 24.5233 0.0841 -1.8625 11.1014 -0.0000 0.0000 0.0000 -73.4208 -14.3747 68.2227 87.5561 -59.9774 -57.8837 -0.0000 0.0000 -8.7813 15.3902 26.8626 7.0899 -7.1250 0.0000 -0.0000 -16.1974 56.9527 -4.8308 -0.0000 0.0000 0.0000 59.7496 16.3508 36.7389 -50.3354 53.1299 -26.4423 0.0000 0.0000 1.4817 -15.2246 2.3680 -0.6443 7.1250 -0.0000 -0.0000 8.7177 -27.4938 3.7488
